<?xml version="1.0" encoding="UTF-8"?><svg id="Camada_2" xmlns="http://www.w3.org/2000/svg" viewBox="0 0 142.61 69.17"><defs><style>.cls-1{fill:#fff;}.cls-2{fill:#0f0505;}</style></defs><g id="Camada_1-2"><g><path class="cls-2" d="M142.13,39.85c1.45,14.4-4.25,25.24-6.52,29.07l-.87-49.97c2.44,3.76,6.38,11,7.39,20.9Z"/><path class="cls-2" d="M129.1,13.8c7.78,2.72,11.57,4.43,11.4,5.12-.12,.47-2.04,.47-5.76,.03h0c-.59-.08-1.23-.16-1.92-.26l-3.72-4.89Z"/><path class="cls-2" d="M134.74,18.95l.87,49.97c-.71-.81-3.06-3.23-6.97-3.96-4.72-.87-8.3,1.36-9.07,1.86,.36-2.54,.59-6.29-.23-10.69-.67-3.51-1.79-6.34-2.8-8.38l-5.11-4.18-81.86-6.75-.93-20.23,19.77-7.21c.3-.15,.6-.3,.92-.45l72.8,1.14c.32,.16,.64,.32,.93,.48l6.04,3.25,3.72,4.89c.69,.1,1.33,.18,1.92,.25h0Z"/><path class="cls-1" d="M135.61,68.92l-16.04-2.1c.77-.5,4.35-2.73,9.07-1.86,3.91,.73,6.26,3.15,6.97,3.96Z"/><path class="cls-2" d="M132.13,6.59c1.09,1.15-2.14,5.93-3.03,7.21l-6.04-3.25c.81-.57,7.73-5.35,9.07-3.96Z"/><path class="cls-2" d="M122.13,10.07l-72.8-1.14c6.64-3.17,17.41-7.23,31.17-7.92C99.89,.04,114.8,6.31,122.13,10.07Z"/><path class="cls-1" d="M119.34,56.13c.82,4.4,.59,8.15,.23,10.69l-3.03-19.07c1.01,2.04,2.13,4.87,2.8,8.38Z"/><path class="cls-2" d="M111.43,43.57l5.11,4.18c-2.86,3.41-5.68,5.53-6.74,4.89-1.1-.67-.48-4.42,1.63-9.07Z"/><path class="cls-2" d="M29.57,36.82l81.86,6.75c-4.19,2.82-23.44,15.09-48.61,10.46-17.44-3.2-28.74-12.86-33.25-17.21Z"/><path class="cls-2" d="M48.41,9.38l-19.77,7.21C20.77,8.39,17.51,3.27,18.87,1.24c1.79-2.68,11.64,.04,29.54,8.14Z"/><path class="cls-2" d="M28.64,16.59l.93,20.23c-16.44-.36-28.86-2.93-29.3-6.74-.45-3.87,11.43-9.34,28.37-13.49Z"/></g></g></svg>