<svg version="1.1" id="Camada_1" xmlns="http://www.w3.org/2000/svg" x="0" y="0" viewBox="0 0 300 300" style="enable-background:new 0 0 300 300" xml:space="preserve">
  <style>
    .st1{fill:#fff}
  </style>
  <circle cx="148.48" cy="142.8" r="47.78" style="fill:#e94e1b;stroke:#e94e1b;stroke-miterlimit:10"/>
  <path class="st1" d="M113.42 123.93c2.86 0 5.2.6 7.03 1.79s2.75 2.78 2.76 4.77c.01 1.99-.6 3.66-1.83 5.02-.71.74-1.36 1.1-1.97 1.1-.6 0-1.07-.15-1.39-.44-.32-.29-.49-.65-.49-1.06s.15-.78.44-1.1c.94-1 1.41-2.08 1.41-3.25 0-1.16-.6-2.08-1.79-2.76-1.19-.68-2.67-1.02-4.44-1.02-1.77 0-3.45.45-5.04 1.35-1.59.9-2.39 1.98-2.39 3.25s.35 2.23 1.06 2.87c.71.65 1.89 1.43 3.56 2.34 1.66.91 2.67 1.47 3.03 1.66.35.19.89.49 1.61.88.72.4 1.2.66 1.44.8.24.13.65.38 1.24.75s.98.63 1.17.8c.19.16.51.42.95.77.44.35.74.65.88.88.15.24.35.55.62.93.62.88.93 2.14.93 3.76 0 2.74-1.19 4.91-3.58 6.5s-5.35 2.39-8.88 2.39c-3.54 0-6.47-.75-8.82-2.25-2.34-1.5-3.51-3.65-3.51-6.45 0-1.12.33-2.1.99-2.94.66-.84 1.47-1.26 2.43-1.26.96 0 1.44.4 1.44 1.19 0 .32-.1.8-.31 1.44-.21.63-.31 1.16-.31 1.57 0 1.77.71 3.12 2.12 4.07 1.41.94 3.43 1.41 6.03 1.41 2.61 0 4.58-.49 5.92-1.46 1.34-.97 2.01-2.23 2.01-3.78s-.65-2.82-1.94-3.82c-.68-.5-1.32-.92-1.92-1.26-.6-.34-1.42-.77-2.45-1.3-1.03-.53-1.73-.91-2.1-1.13-.37-.22-.92-.54-1.66-.97-.74-.43-1.19-.7-1.35-.82-.16-.12-.55-.37-1.15-.75-.6-.38-.99-.66-1.15-.84-.16-.18-.46-.46-.88-.84-.43-.38-.71-.71-.84-.99s-.34-.69-.62-1.24c-.28-.54-.42-1.39-.42-2.54 0-2.44 1.21-4.39 3.65-5.83 2.44-1.46 5.27-2.19 8.51-2.19zM125.09 148.73c0-.62.03-1.25.09-1.9.27-5.04 1.25-10.24 2.96-15.6.88-2.68 2.07-4.9 3.56-6.65 1.49-1.75 3.13-2.63 4.93-2.63 1.06 0 1.9.32 2.52.97.62.65.93 1.5.93 2.56v.31c-.24 1.94-1.14 4.11-2.72 6.5-1.58 2.39-4.25 5.27-8.02 8.66l-.8 4.42c1.44-2.53 3.09-4.51 4.93-5.94 1.84-1.43 3.16-2.14 3.96-2.14.8 0 1.41.17 1.86.51.44.34.66.7.66 1.08s-.07.79-.22 1.21c-.15.43-.68 1.7-1.59 3.82s-1.37 3.65-1.37 4.6c0 .29.17.44.51.44.34 0 1.08-.34 2.23-1.02a24.87 24.87 0 0 0 3.18-2.21c.15-.09.33-.13.55-.13.22 0 .44.18.66.53.22.35.33.8.33 1.35s-.29 1.02-.88 1.44c-2.98 2-5.6 3-7.87 3-.53 0-1.02-.22-1.48-.66-.46-.44-.68-1.16-.68-2.17 0-1 .35-2.4 1.06-4.2.71-1.8 1.06-2.75 1.06-2.87 0-.12-.04-.18-.13-.18-.15 0-.38.12-.71.35-1.09.8-2.24 1.97-3.45 3.51-1.21 1.55-1.99 2.83-2.34 3.84-.35 1.02-.65 1.67-.88 1.95-.24.28-.65.42-1.24.42s-1-.27-1.24-.82c-.24-.54-.36-1.32-.36-2.35zm10.52-23.21c-1.36 0-2.76 1.96-4.2 5.88-.77 2.09-1.33 4.15-1.68 6.19 1.77-1.86 3.34-3.85 4.73-5.99 1.38-2.14 2.08-3.85 2.08-5.15 0-.62-.31-.93-.93-.93z"/>
  <path class="st1" d="M141.4 147.27c0-2.65.95-5.02 2.85-7.09 1.9-2.08 3.93-3.12 6.08-3.12 1.21 0 1.81.31 1.81.93v.27h1.02c.83 0 1.24.38 1.24 1.15v.27l-1.24 7.6c-.03.12-.04.28-.04.49 0 .71.25 1.06.75 1.06 1.12 0 2.45-.99 3.98-2.96.21-.27.41-.4.62-.4.29 0 .54.23.75.69.21.46.31.85.31 1.19 0 .34-.03.6-.09.77-.68.94-1.56 1.81-2.65 2.59s-2.13 1.17-3.12 1.17c-.99 0-1.75-.26-2.3-.77-.54-.52-.88-1.22-.99-2.1v.09c-.5.94-1.16 1.68-1.99 2.21-.85.53-1.87.79-3.05.79-1.18 0-2.13-.45-2.85-1.35-.73-.91-1.09-2.07-1.09-3.48zm4.99 1.72c.8 0 1.55-.44 2.28-1.33.72-.88 1.22-1.86 1.48-2.92l1.19-4.95c-1.71 0-3.24.81-4.6 2.43-1.36 1.62-2.03 3.15-2.03 4.6 0 1.45.56 2.17 1.68 2.17z"/>
  <path class="st1" d="M155.1 160.57c.09-.97.47-3.17 1.15-6.61.68-3.43 1.07-5.32 1.17-5.66.1-.34.36-1.18.77-2.52.41-1.34.93-2.64 1.55-3.91.5-1 1.03-1.8 1.59-2.41.56-.6 1.3-1.12 2.21-1.55.91-.43 2-.64 3.25-.64s2.22.44 2.89 1.3c.68.87 1.02 1.98 1.02 3.34 0 .32-.03.78-.09 1.37 1.47-.32 3.42-1.62 5.83-3.89.18-.09.35-.13.53-.13s.35.12.51.35c.16.24.24.55.24.93s-.16.69-.49.93c-.74.88-1.84 1.81-3.31 2.78-1.47.97-2.83 1.61-4.07 1.9-.65 1.71-1.59 3.12-2.83 4.24s-2.62 1.68-4.15 1.68c-.91 0-1.78-.38-2.61-1.15-.09.35-.41 1.99-.95 4.91-.55 2.92-.89 4.58-1.04 4.99-.15.41-.5.79-1.06 1.13s-1.06.51-1.5.51l-.31-.44c-.24-.32-.35-.63-.35-.93l.05-.52zm7.91-11.45c.77 0 1.5-.29 2.19-.88s1.26-1.35 1.7-2.3c-.74-.35-1.11-.97-1.11-1.86 0-.5.08-.91.24-1.22.16-.31.52-.69 1.08-1.13.06-.12.12-.19.18-.22-.35-.91-.87-1.37-1.55-1.37s-1.27.19-1.79.57c-.52.38-.95.94-1.3 1.68-.35.74-.63 1.4-.82 1.99s-.4 1.33-.62 2.21c-.22.88-.36 1.43-.42 1.64.71.6 1.45.89 2.22.89z"/>
  <path class="st1" d="M172.29 146.16c0-2.18.71-4.21 2.14-6.08 1.43-1.87 3.16-2.81 5.19-2.81 1.21 0 2.21.34 3.01 1.02.79.68 1.19 1.59 1.19 2.74 0 1.62-.66 2.93-1.99 3.93s-3.33 1.78-6.01 2.34c.41 1.27 1.47 1.9 3.18 1.9 2.36 0 4.58-1 6.67-3.01.12-.12.3-.18.55-.18.25 0 .49.1.71.31.22.21.33.46.33.75s-.1.59-.31.88c-.74 1.03-1.9 1.98-3.49 2.85-1.59.87-3.25 1.3-4.97 1.3-1.72 0-3.19-.51-4.4-1.52-1.2-.99-1.8-2.47-1.8-4.42zm7.4-6.01c-.96 0-1.88.55-2.76 1.66-.88 1.1-1.33 2.29-1.33 3.56 3.68-1.27 5.52-2.59 5.52-3.98 0-.82-.48-1.24-1.43-1.24z"/>
  <path class="st1" d="M191.82 152.08c-1.83 0-3.42-.36-4.79-1.08-1.37-.72-2.32-1.63-2.85-2.72 1.3-2.24 3.02-5.57 5.17-9.99.47-.91 1.15-1.37 2.03-1.37.44 0 .82.14 1.13.42.31.28.46.64.46 1.08 0 .41-.09.77-.27 1.06s-.26.59-.26.88c0 .29.32.84.97 1.63.65.8 1.29 1.68 1.92 2.65.63.97.95 1.82.95 2.54s-.16 1.35-.49 1.88c1.35-.44 2.8-1.62 4.33-3.54a.87.87 0 0 1 .64-.27c.25 0 .53.2.84.6.31.4.46.74.46 1.02s-.06.54-.18.77c-.85 1.33-2.14 2.39-3.84 3.2-1.7.84-3.78 1.24-6.22 1.24zm-1.11-2.51h.18c1.47 0 2.21-.66 2.21-1.99s-.71-3.03-2.12-5.13l-2.92 5.92c1.03.8 1.92 1.2 2.65 1.2z"/>
  <path style="fill:none;stroke:#1d71b8;stroke-miterlimit:10" d="M180.3 86.9h-64.55l-32.27 55.9 32.27 55.9h64.55l32.27-55.9z"/>
  <path style="fill:none;stroke:#be1622;stroke-miterlimit:10" d="M79.19 73.16h138.58v138.58H79.19z"/>
</svg>